{"title":"Book of Blood 2009 DVDRip Xvid BigPerm LKRG","uid":5692522,"size":735676414,"categoryP":"video","categoryS":"movies","magnet":"?xt=urn:btih:4177636e77636232ec10d0e80c49cc5efc165e29&amp;dn=Book+of+Blood+2009+DVDRip+Xvid+BigPerm+LKRG&amp;tr=udp%3A%2F%2Ftracker.openbittorrent.com%3A80&amp;tr=udp%3A%2F%2Fopen.demonii.com%3A1337&amp;tr=udp%3A%2F%2Ftracker.coppersurfer.tk%3A6969&amp;tr=udp%3A%2F%2Fexodus.desync.com%3A6969","seeders":1,"leechers":2,"uploader":"neon","files":2,"time":1279141441,"description":"Plot:\n\nA paranormal expert discovers a house that is at the intersection of so-called &quot;highways&quot; transporting souls in the afterlife.\n\nCast:\n\nJonas Armstrong...................Simon McNeal\nSophie Ward.......................Mary Florescu\nClive Russell.....................Wyburd\nPaul Blair........................Reg Fuller\nRomana Abercromby.................Janie\nSimon Bamford.....................Derek\nJames Watson......................Jimmy\nDoug Bradley......................Tollington\nGowan Calder......................Janie's Mother\nGraham Colquhoun..................Simon's Father\nMarcus McLeod.....................Janie's Father\nJames McAnerney...................Doctor Nigel Blake\nJoy McBrinn.......................Waitress\nCharlie McFadden..................Joanne\n\n\n\nGeneral:\n\nFormat : AVI\nFormat/Info : Audio Video Interleave\nFile size : 702 MiB\nDuration : 1h 40mn\nOverall bit rate : 979 Kbps\n\nVideo:\n\nID : 0\nFormat : MPEG-4 Visual\nFormat profile : Advanced Simple@L5\nFormat settings, BVOP : Yes\nFormat settings, QPel : No\nFormat settings, GMC : No warppoints\nFormat settings, Matrix : Default (H.263)\nCodec ID : XVID\nCodec ID/Hint : XviD\nDuration : 1h 40mn\nBit rate : 526 Kbps\nWidth : 696 pixels\nHeight : 388 pixels\nDisplay aspect ratio : 16:9\nFrame rate : 23.976 fps\nResolution : 8 bits\nColorimetry : 4:2:0\nScan type : Progressive\nBits/(Pixel*Frame) : 0.081\nStream size : 377 MiB (54%)\nWriting library : XviD 1.2.1 (UTC 2008-12-04)\n\nAudio:\n\nID : 1\nFormat : AC-3\nFormat/Info : Audio Coding 3\nCodec ID : 2000\nDuration : 1h 40mn\nBit rate mode : Constant\nBit rate : 448 Kbps\nChannel(s) : 6 channels\nChannel positions : Front: L C R, Side: L R, LFE\nSampling rate : 48.0 KHz\nResolution : 16 bits\nVideo delay : 42ms\nStream size : 321 MiB (46%)\nLanguage : English","torrent":{"xt":"urn:btih:4177636e77636232ec10d0e80c49cc5efc165e29","amp;dn":"Book+of+Blood+2009+DVDRip+Xvid+BigPerm+LKRG","amp;tr":["udp%3A%2F%2Ftracker.openbittorrent.com%3A80","udp%3A%2F%2Fopen.demonii.com%3A1337","udp%3A%2F%2Ftracker.coppersurfer.tk%3A6969","udp%3A%2F%2Fexodus.desync.com%3A6969"],"infoHash":"4177636e77636232ec10d0e80c49cc5efc165e29","infoHashBuffer":{"type":"Buffer","data":[65,119,99,110,119,99,98,50,236,16,208,232,12,73,204,94,252,22,94,41]},"announce":[],"urlList":[]}}